<?xml version="1.0" standalone="no"?>
<!DOCTYPE svg PUBLIC "-//W3C//DTD SVG 20010904//EN"
 "http://www.w3.org/TR/2001/REC-SVG-20010904/DTD/svg10.dtd">
<svg version="1.0" xmlns="http://www.w3.org/2000/svg"
 width="700.000000pt" height="700.000000pt" viewBox="0 0 700.000000 700.000000"
 preserveAspectRatio="xMidYMid meet">
<metadata>
Created by potrace 1.11, written by Peter Selinger 2001-2013
</metadata>
<g transform="translate(0.000000,700.000000) scale(0.100000,-0.100000)"
fill="#000000" stroke="none">
<path d="M6185 6768 c-23 -14 -588 -429 -595 -438 -3 -3 -21 -17 -40 -30 -19
-13 -111 -81 -205 -150 -93 -69 -233 -173 -310 -230 -273 -202 -441 -327 -601
-445 -89 -66 -271 -201 -405 -300 -248 -184 -545 -404 -596 -442 -15 -12 -118
-88 -228 -169 -110 -81 -240 -177 -290 -214 -49 -37 -160 -118 -245 -181 -85
-64 -216 -160 -290 -215 -297 -220 -488 -361 -540 -399 -30 -22 -62 -45 -70
-52 -18 -15 -385 -287 -655 -487 -182 -134 -415 -306 -726 -537 -199 -149
-206 -168 -106 -301 62 -81 408 -527 450 -580 12 -15 46 -57 75 -95 273 -355
958 -1233 976 -1251 45 -46 84 -40 271 36 504 206 955 432 1410 706 80 48 415
266 425 276 3 3 12 10 22 15 81 49 629 463 668 505 3 3 21 18 40 34 121 99
352 308 503 456 120 116 300 298 332 334 6 6 53 58 105 116 52 58 133 150 180
205 47 55 95 111 108 125 52 56 70 122 44 164 -5 9 -975 1306 -1004 1343 -7 8
20 34 94 88 57 41 113 83 125 93 54 42 535 398 551 407 9 6 19 13 22 16 3 3
77 59 165 124 361 268 504 373 575 425 41 30 77 57 80 60 3 3 57 43 120 89 63
46 127 95 142 109 32 29 45 83 30 117 -8 18 -419 577 -477 649 -27 34 -91 46
-130 24z m199 -481 c80 -109 146 -201 146 -205 0 -4 -91 -75 -202 -157 -368
-272 -603 -445 -618 -458 -8 -7 -40 -30 -70 -52 -51 -37 -176 -130 -727 -538
l-211 -157 -39 14 c-65 23 -262 64 -368 76 -55 7 -162 12 -238 12 l-137 -1
144 107 c79 59 229 170 333 247 103 76 256 189 338 251 83 61 440 326 795 588
355 263 652 484 660 492 19 19 18 20 194 -219z m-2142 -1691 c76 -7 188 -26
258 -45 19 -6 51 -14 70 -19 91 -25 84 -18 400 -439 168 -223 317 -423 332
-443 l28 -37 -76 -89 c-556 -653 -1229 -1248 -1954 -1726 -197 -130 -476 -299
-625 -379 -55 -30 -113 -61 -130 -71 -79 -45 -578 -288 -590 -288 -3 0 -28
-11 -57 -24 -60 -27 -226 -96 -278 -116 -19 -7 -40 -17 -46 -22 -11 -8 -32 14
-106 112 -26 34 -205 265 -252 325 -75 95 -144 184 -168 215 -30 39 -218 282
-249 320 -11 14 -30 38 -42 54 -12 16 -79 101 -148 190 l-126 161 243 180
c133 99 367 272 519 385 153 113 332 246 399 295 66 50 229 170 361 267 132
98 245 181 250 186 6 4 55 41 110 82 55 41 177 131 270 200 94 70 267 198 385
285 118 87 275 204 349 258 121 90 141 102 220 123 102 29 217 50 321 60 41 3
76 7 77 8 5 4 181 -2 255 -8z m1265 -1218 c22 -29 65 -87 95 -129 l56 -75 -90
-105 c-259 -300 -566 -615 -839 -860 -789 -709 -1708 -1288 -2683 -1688 -82
-34 -150 -60 -152 -59 -1 2 -45 59 -98 127 l-96 124 127 54 c71 29 152 65 181
78 29 14 55 25 58 25 28 0 580 279 799 404 245 140 707 432 795 503 8 6 70 52
137 101 104 75 322 241 383 292 9 8 39 33 66 55 77 64 137 115 164 139 14 12
50 44 80 70 248 217 599 569 848 854 69 78 126 142 127 142 2 0 20 -24 42 -52z"/>
<path d="M1135 2508 c-64 -13 -123 -48 -173 -103 -149 -164 -96 -418 107 -517
70 -34 197 -32 271 3 71 34 126 90 159 159 34 71 37 202 7 265 -71 147 -219
225 -371 193z m109 -222 c44 -18 66 -52 66 -99 0 -31 -7 -46 -34 -73 -36 -36
-71 -43 -120 -24 -60 22 -80 118 -36 166 42 44 72 52 124 30z"/>
</g>
</svg>
