<svg version="1.0" xmlns="http://www.w3.org/2000/svg" width="933.333" height="933.333" viewBox="0 0 700 700"><path d="M618.5 23.2c-2.3 1.4-58.8 42.9-59.5 43.8-.3.3-2.1 1.7-4 3s-11.1 8.1-20.5 15c-9.3 6.9-23.3 17.3-31 23-27.3 20.2-44.1 32.7-60.1 44.5-8.9 6.6-27.1 20.1-40.5 30-24.8 18.4-54.5 40.4-59.6 44.2-1.5 1.2-11.8 8.8-22.8 16.9-11 8.1-24 17.7-29 21.4-4.9 3.7-16 11.8-24.5 18.1-8.5 6.4-21.6 16-29 21.5-29.7 22-48.8 36.1-54 39.9-3 2.2-6.2 4.5-7 5.2-1.8 1.5-38.5 28.7-65.5 48.7C93.3 411.8 70 429 38.9 452.1 19 467 18.3 468.9 28.3 482.2c6.2 8.1 40.8 52.7 45 58 1.2 1.5 4.6 5.7 7.5 9.5 27.3 35.5 95.8 123.3 97.6 125.1 4.5 4.6 8.4 4 27.1-3.6 50.4-20.6 95.5-43.2 141-70.6 8-4.8 41.5-26.6 42.5-27.6.3-.3 1.2-1 2.2-1.5 8.1-4.9 62.9-46.3 66.8-50.5.3-.3 2.1-1.8 4-3.4 12.1-9.9 35.2-30.8 50.3-45.6 12-11.6 30-29.8 33.2-33.4.6-.6 5.3-5.8 10.5-11.6s13.3-15 18-20.5c4.7-5.5 9.5-11.1 10.8-12.5 5.2-5.6 7-12.2 4.4-16.4-.5-.9-97.5-130.6-100.4-134.3-.7-.8 2-3.4 9.4-8.8 5.7-4.1 11.3-8.3 12.5-9.3 5.4-4.2 53.5-39.8 55.1-40.7.9-.6 1.9-1.3 2.2-1.6.3-.3 7.7-5.9 16.5-12.4 36.1-26.8 50.4-37.3 57.5-42.5 4.1-3 7.7-5.7 8-6 .3-.3 5.7-4.3 12-8.9 6.3-4.6 12.7-9.5 14.2-10.9 3.2-2.9 4.5-8.3 3-11.7-.8-1.8-41.9-57.7-47.7-64.9-2.7-3.4-9.1-4.6-13-2.4zm19.9 48.1c8 10.9 14.6 20.1 14.6 20.5 0 .4-9.1 7.5-20.2 15.7-36.8 27.2-60.3 44.5-61.8 45.8-.8.7-4 3-7 5.2-5.1 3.7-17.6 13-72.7 53.8L470.2 228l-3.9-1.4c-6.5-2.3-26.2-6.4-36.8-7.6-5.5-.7-16.2-1.2-23.8-1.2l-13.7.1 14.4-10.7c7.9-5.9 22.9-17 33.3-24.7 10.3-7.6 25.6-18.9 33.8-25.1 8.3-6.1 44-32.6 79.5-58.8 35.5-26.3 65.2-48.4 66-49.2 1.9-1.9 1.8-2 19.4 21.9zM424.2 240.4c7.6.7 18.8 2.6 25.8 4.5 1.9.6 5.1 1.4 7 1.9 9.1 2.5 8.4 1.8 40 43.9 16.8 22.3 31.7 42.3 33.2 44.3l2.8 3.7-7.6 8.9C469.8 412.9 402.5 472.4 330 520.2c-19.7 13-47.6 29.9-62.5 37.9-5.5 3-11.3 6.1-13 7.1-7.9 4.5-57.8 28.8-59 28.8-.3 0-2.8 1.1-5.7 2.4-6 2.7-22.6 9.6-27.8 11.6-1.9.7-4 1.7-4.6 2.2-1.1.8-3.2-1.4-10.6-11.2-2.6-3.4-20.5-26.5-25.2-32.5-7.5-9.5-14.4-18.4-16.8-21.5-3-3.9-21.8-28.2-24.9-32-1.1-1.4-3-3.8-4.2-5.4-1.2-1.6-7.9-10.1-14.8-19l-12.6-16.1 24.3-18c13.3-9.9 36.7-27.2 51.9-38.5 15.3-11.3 33.2-24.6 39.9-29.5 6.6-5 22.9-17 36.1-26.7 13.2-9.8 24.5-18.1 25-18.6.6-.4 5.5-4.1 11-8.2s17.7-13.1 27-20c9.4-7 26.7-19.8 38.5-28.5s27.5-20.4 34.9-25.8c12.1-9 14.1-10.2 22-12.3 10.2-2.9 21.7-5 32.1-6 4.1-.3 7.6-.7 7.7-.8.5-.4 18.1.2 25.5.8zm126.5 121.8c2.2 2.9 6.5 8.7 9.5 12.9l5.6 7.5-9 10.5c-25.9 30-56.6 61.5-83.9 86C394 550 302.1 607.9 204.6 647.9c-8.2 3.4-15 6-15.2 5.9-.1-.2-4.5-5.9-9.8-12.7l-9.6-12.4 12.7-5.4c7.1-2.9 15.2-6.5 18.1-7.8 2.9-1.4 5.5-2.5 5.8-2.5 2.8 0 58-27.9 79.9-40.4 24.5-14 70.7-43.2 79.5-50.3.8-.6 7-5.2 13.7-10.1 10.4-7.5 32.2-24.1 38.3-29.2.9-.8 3.9-3.3 6.6-5.5 7.7-6.4 13.7-11.5 16.4-13.9 1.4-1.2 5-4.4 8-7 24.8-21.7 59.9-56.9 84.8-85.4 6.9-7.8 12.6-14.2 12.7-14.2.2 0 2 2.4 4.2 5.2z"/><path d="M113.5 449.2c-6.4 1.3-12.3 4.8-17.3 10.3-14.9 16.4-9.6 41.8 10.7 51.7 7 3.4 19.7 3.2 27.1-.3 7.1-3.4 12.6-9 15.9-15.9 3.4-7.1 3.7-20.2.7-26.5-7.1-14.7-21.9-22.5-37.1-19.3zm10.9 22.2c4.4 1.8 6.6 5.2 6.6 9.9 0 3.1-.7 4.6-3.4 7.3-3.6 3.6-7.1 4.3-12 2.4-6-2.2-8-11.8-3.6-16.6 4.2-4.4 7.2-5.2 12.4-3z"/></svg>